<?xml version="1.0" standalone="no"?><svg xmlns="http://www.w3.org/2000/svg" viewBox="0 0 1440 320"><path fill="#ffd700" fill-opacity="1" d="M0,96L30,85.3C60,75,120,53,180,69.3C240,85,300,139,360,176C420,213,480,235,540,208C600,181,660,107,720,112C780,117,840,203,900,197.3C960,192,1020,96,1080,74.7C1140,53,1200,107,1260,122.7C1320,139,1380,117,1410,106.7L1440,96L1440,320L1410,320C1380,320,1320,320,1260,320C1200,320,1140,320,1080,320C1020,320,960,320,900,320C840,320,780,320,720,320C660,320,600,320,540,320C480,320,420,320,360,320C300,320,240,320,180,320C120,320,60,320,30,320L0,320Z"></path></svg>